<svg id="ebGPsDZKEm71" xmlns="http://www.w3.org/2000/svg" xmlns:xlink="http://www.w3.org/1999/xlink" viewBox="0 0 457.89 307.09" shape-rendering="geometricPrecision" text-rendering="geometricPrecision" project-id="2f4736255637473b80120df678149e63" export-id="14204fb167f94cab900cb72c5b33c766" cached="false"><style>
  /* 3s cycle: draw in 0-40%, hold 40-70%, undraw forward (top-to-bottom) 70-95%, blank 95-100% */
  /* Undraw uses negative overshoot so stroke exits forward (top-down) instead of reversing */
  @keyframes drawLeft { 0%,100% { stroke-dashoffset: 327.45; } 27% { stroke-dashoffset: 0; } 70% { stroke-dashoffset: 0; } 92% { stroke-dashoffset: -327.45; } }
  @keyframes draw8top { 0%,7%,100% { stroke-dashoffset: -220.17; } 27% { stroke-dashoffset: 0; } 70% { stroke-dashoffset: 0; } 92% { stroke-dashoffset: 220.17; } }
  @keyframes draw8bot { 0%,7%,100% { stroke-dashoffset: -209.51; } 27% { stroke-dashoffset: 0; } 70% { stroke-dashoffset: 0; } 92% { stroke-dashoffset: 209.51; } }
  @keyframes drawRight { 0%,13%,100% { stroke-dashoffset: 327.44; } 40% { stroke-dashoffset: 0; } 70% { stroke-dashoffset: 0; } 92% { stroke-dashoffset: -327.44; } }
  @keyframes fade8 { 0%,7%,100% { opacity: 0; } 14% { opacity: 1; } 70% { opacity: 1; } 92% { opacity: 0; } }
  @keyframes fadeStroke { 0%,53%,100% { opacity: 0; } 60% { opacity: 1; } 70% { opacity: 1; } 92% { opacity: 0; } }

  /* Left C — draws first */
  #ebGPsDZKEm718 { animation: drawLeft 3s ease-in-out infinite; }
  /* 8 — draws second */
  #ebGPsDZKEm77 { animation: fade8 3s ease-in-out infinite; }
  #ebGPsDZKEm710 { animation: draw8top 3s ease-in-out infinite; }
  #ebGPsDZKEm714 { animation: draw8bot 3s ease-in-out infinite; }
  /* Right C — draws last */
  #ebGPsDZKEm76 { animation: drawRight 3s ease-in-out infinite; }
  /* Solid 8 overlay */
  #ebGPsDZKEm719 { opacity: 0; animation: fadeStroke 3s ease-in-out infinite; }
  #ebGPsDZKEm725 { opacity: 0; }
  #ebGPsDZKEm729 { opacity: 0; }
</style><g id="ebGPsDZKEm72"><g mask="url(#ebGPsDZKEm75)"><path d="M308.74,56.92c6.33-10.8,14.93-19.23,25.8-25.3s22.77-9.1,35.7-9.1c14.8,0,27.96,3.63,39.5,10.9c11.53,7.27,19.9,17.57,25.1,30.9h-27.4c-3.6-7.33-8.6-12.8-15-16.4s-13.8-5.4-22.2-5.4c-9.2,0-17.4,2.07-24.6,6.2s-12.83,10.07-16.9,17.8-6.1,16.73-6.1,27s2.03,19.27,6.1,27s9.7,13.7,16.9,17.9s15.4,6.3,24.6,6.3c8.4,0,15.8-1.8,22.2-5.4s11.4-9.07,15-16.4h27.4c-5.2,13.33-13.57,23.6-25.1,30.8-11.54,7.2-24.7,10.8-39.5,10.8-13.07,0-25-3.03-35.8-9.1s-19.37-14.5-25.7-25.3-9.5-23-9.5-36.6s3.17-25.8,9.5-36.6Z"/><mask id="ebGPsDZKEm75" mask-type="luminance" x="-150%" y="-150%" height="400%" width="400%"><path id="ebGPsDZKEm76" d="M422.16,67.64c0-14.95-20.58-34.84-49.29-35.85-36.76-1.29-62.04,29.61-62.04,60.38c0,26.29,20.31,62.89,55.99,62.89c26.95,0,53.6-14.89,56.44-35.24" fill="none" stroke="#fff" stroke-width="35" stroke-miterlimit="10" stroke-dashoffset="327.44" stroke-dasharray="327.44"/></mask></g><g id="ebGPsDZKEm77" opacity="0" mask="url(#ebGPsDZKEm79)"><path d="M183.02,58.98c0-6.77,1.69-12.97,5.08-18.61c3.38-5.64,8.46-10.12,15.23-13.44s15.04-4.98,24.82-4.98c9.65,0,17.89,1.66,24.72,4.98s11.94,7.8,15.32,13.44s5.08,11.84,5.08,18.61c0,7.02-1.79,13.19-5.36,18.52s-8.3,9.43-14.19,12.31c7.14,2.63,12.78,6.93,16.92,12.88s6.2,12.94,6.2,20.96c0,8.15-2.07,15.35-6.2,21.62-4.14,6.27-9.9,11.09-17.3,14.48-7.4,3.38-15.79,5.08-25.19,5.08s-17.77-1.69-25.1-5.08c-7.33-3.38-13.07-8.21-17.2-14.48-4.14-6.27-6.2-13.47-6.2-21.62s2.07-15.16,6.2-21.06c4.14-5.89,9.71-10.15,16.73-12.78-13.04-6.52-19.56-16.8-19.56-30.83Zm24.91,46.34c-5.2,4.07-7.8,9.93-7.8,17.58c0,7.14,2.51,12.94,7.52,17.39s11.84,6.67,20.49,6.67c8.52,0,15.26-2.26,20.21-6.77s7.43-10.28,7.43-17.3c0-7.52-2.54-13.35-7.61-17.48-5.08-4.14-11.75-6.2-20.02-6.2-8.28,0-15.02,2.04-20.22,6.11Zm38.26-59.88c-4.39-3.76-10.4-5.64-18.05-5.64-7.52,0-13.47,1.88-17.86,5.64s-6.58,9.21-6.58,16.36c0,6.27,2.29,11.37,6.86,15.32s10.43,5.92,17.58,5.92c7.14,0,13.03-2,17.67-6.02c4.64-4.01,6.96-9.15,6.96-15.42c0-7.01-2.2-12.4-6.58-16.16Z"/><mask id="ebGPsDZKEm79" mask-type="luminance" x="-150%" y="-150%" height="400%" width="400%"><path id="ebGPsDZKEm710" d="M224.212512,162.054785c10.454581-1.412781,26.38779-5.457537,31.862497-14.129709C263.524739,136.124381,270.75,113.45,254.97,101.42l-3.34-2.55c-13-9.91-32.54-10.28-46.05-.89l-2.23,1.55c-16.46,11.45-17.42,32.57-2.04,45.06l3.31,2.69c13.29,10.81,10.444305,16.011029,19.592512,14.774785Z" transform="matrix(1 0 0 -1 0 246.807106)" fill="none" stroke="#fff" stroke-width="25" stroke-miterlimit="10" stroke-dashoffset="220.17" stroke-dasharray="220.17"/></mask></g><g mask="url(#ebGPsDZKEm713)"><path d="M183.02,58.98c0-6.77,1.69-12.97,5.08-18.61c3.38-5.64,8.46-10.12,15.23-13.44s15.04-4.98,24.82-4.98c9.65,0,17.89,1.66,24.72,4.98s11.94,7.8,15.32,13.44s5.08,11.84,5.08,18.61c0,7.02-1.79,13.19-5.36,18.52s-8.3,9.43-14.19,12.31c7.14,2.63,12.78,6.93,16.92,12.88s6.2,12.94,6.2,20.96c0,8.15-2.07,15.35-6.2,21.62-4.14,6.27-9.9,11.09-17.3,14.48-7.4,3.38-15.79,5.08-25.19,5.08s-17.77-1.69-25.1-5.08c-7.33-3.38-13.07-8.21-17.2-14.48-4.14-6.27-6.2-13.47-6.2-21.62s2.07-15.16,6.2-21.06c4.14-5.89,9.71-10.15,16.73-12.78-13.04-6.52-19.56-16.8-19.56-30.83Zm24.91,46.34c-5.2,4.07-7.8,9.93-7.8,17.58c0,7.14,2.51,12.94,7.52,17.39s11.84,6.67,20.49,6.67c8.52,0,15.26-2.26,20.21-6.77s7.43-10.28,7.43-17.3c0-7.52-2.54-13.35-7.61-17.48-5.08-4.14-11.75-6.2-20.02-6.2-8.28,0-15.02,2.04-20.22,6.11Zm38.26-59.88c-4.39-3.76-10.4-5.64-18.05-5.64-7.52,0-13.47,1.88-17.86,5.64s-6.58,9.21-6.58,16.36c0,6.27,2.29,11.37,6.86,15.32s10.43,5.92,17.58,5.92c7.14,0,13.03-2,17.67-6.02c4.64-4.01,6.96-9.15,6.96-15.42c0-7.01-2.2-12.4-6.58-16.16Z"/><mask id="ebGPsDZKEm713" mask-type="luminance" x="-150%" y="-150%" height="400%" width="400%"><path id="ebGPsDZKEm714" d="M221.035941,82.443898c12.529927.041519,12.237959,1.575183,37.683222-7.633578c0,0,9.190837-10.49032,2.646459-26.89032C260.438406,45.596427,248.35,33.42,248.35,33.42c-12.2-9.59-29.77-7.41-42.46,1.68l-2.09,1.5c-15.46,11.08-10.293247,35.817115.780356,40.195051c0,0,13.305219,7.708702,20.332958,8.072206" fill="none" stroke="#fff" stroke-width="25" stroke-miterlimit="10" stroke-dashoffset="209.51" stroke-dasharray="209.51"/></mask></g><g mask="url(#ebGPsDZKEm717)"><path d="M30.74,56.92c6.33-10.8,14.93-19.23,25.8-25.3s22.77-9.1,35.7-9.1c14.8,0,27.96,3.63,39.5,10.9c11.53,7.27,19.9,17.57,25.1,30.9h-27.4c-3.6-7.33-8.6-12.8-15-16.4s-13.8-5.4-22.2-5.4c-9.2,0-17.4,2.07-24.6,6.2s-12.83,10.07-16.9,17.8-6.1,16.73-6.1,27s2.03,19.27,6.1,27s9.7,13.7,16.9,17.9s15.4,6.3,24.6,6.3c8.4,0,15.8-1.8,22.2-5.4s11.4-9.07,15-16.4h27.4c-5.2,13.33-13.57,23.6-25.1,30.8-11.54,7.2-24.7,10.8-39.5,10.8-13.07,0-25-3.03-35.8-9.1s-19.37-14.5-25.7-25.3-9.5-23-9.5-36.6s3.17-25.8,9.5-36.6Z"/><mask id="ebGPsDZKEm717" mask-type="luminance" x="-150%" y="-150%" height="400%" width="400%"><path id="ebGPsDZKEm718" d="M143.16,67.64c0-14.95-20.58-34.84-49.29-35.85-36.77-1.3-62.05,29.6-62.05,60.38c0,26.29,20.31,62.89,55.99,62.89c26.95,0,53.6-14.89,56.44-35.24" fill="none" stroke="#fff" stroke-width="35" stroke-miterlimit="10" stroke-dashoffset="327.45" stroke-dasharray="327.45"/></mask></g><path id="ebGPsDZKEm719" d="M183.02,58.98c0-6.77,1.69-12.97,5.08-18.61c3.38-5.64,8.46-10.12,15.23-13.44s15.04-4.98,24.82-4.98c9.65,0,17.89,1.66,24.72,4.98s11.94,7.8,15.32,13.44s5.08,11.84,5.08,18.61c0,7.02-1.79,13.19-5.36,18.52s-8.3,9.43-14.19,12.31c7.14,2.63,12.78,6.93,16.92,12.88s6.2,12.94,6.2,20.96c0,8.15-2.07,15.35-6.2,21.62-4.14,6.27-9.9,11.09-17.3,14.48-7.4,3.38-15.79,5.08-25.19,5.08s-17.77-1.69-25.1-5.08c-7.33-3.38-13.07-8.21-17.2-14.48-4.14-6.27-6.2-13.47-6.2-21.62s2.07-15.16,6.2-21.06c4.14-5.89,9.71-10.15,16.73-12.78-13.04-6.52-19.56-16.8-19.56-30.83Zm24.91,46.34c-5.2,4.07-7.8,9.93-7.8,17.58c0,7.14,2.51,12.94,7.52,17.39s11.84,6.67,20.49,6.67c8.52,0,15.26-2.26,20.21-6.77s7.43-10.28,7.43-17.3c0-7.52-2.54-13.35-7.61-17.48-5.08-4.14-11.75-6.2-20.02-6.2-8.28,0-15.02,2.04-20.22,6.11Zm38.26-59.88c-4.39-3.76-10.4-5.64-18.05-5.64-7.52,0-13.47,1.88-17.86,5.64s-6.58,9.21-6.58,16.36c0,6.27,2.29,11.37,6.86,15.32s10.43,5.92,17.58,5.92c7.14,0,13.03-2,17.67-6.02c4.64-4.01,6.96-9.15,6.96-15.42c0-7.01-2.2-12.4-6.58-16.16Z" opacity="0"/></g><path d="" fill="none" stroke="#3f5787" stroke-width="0.91578"/><path d="" fill="none" stroke="#3f5787" stroke-width="0.91578"/>

</svg>
